
<region>
sample=../Samples/perc/oh/timbales/timb13_vl1_rr1.wav
hivel=26
seq_length=4
amp_velcurve_26=1

<region>
sample=../Samples/perc/oh/timbales/timb13_vl1_rr2.wav
hivel=26
seq_length=4
seq_position=2
amp_velcurve_26=1

<region>
sample=../Samples/perc/oh/timbales/timb13_vl1_rr3.wav
hivel=26
seq_length=4
seq_position=3
amp_velcurve_26=1

<region>
sample=../Samples/perc/oh/timbales/timb13_vl1_rr4.wav
hivel=26
seq_length=4
seq_position=4
amp_velcurve_26=1

<region>
sample=../Samples/perc/oh/timbales/timb13_vl2_rr1.wav
lovel=27
hivel=51
seq_length=4
amp_velcurve_51=1

<region>
sample=../Samples/perc/oh/timbales/timb13_vl2_rr2.wav
lovel=27
hivel=51
seq_length=4
seq_position=2
amp_velcurve_51=1

<region>
sample=../Samples/perc/oh/timbales/timb13_vl2_rr3.wav
lovel=27
hivel=51
seq_length=4
seq_position=3
amp_velcurve_51=1

<region>
sample=../Samples/perc/oh/timbales/timb13_vl2_rr4.wav
lovel=27
hivel=51
seq_length=4
seq_position=4
amp_velcurve_51=1

<region>
sample=../Samples/perc/oh/timbales/timb13_vl3_rr1.wav
lovel=52
hivel=77
seq_length=4
amp_velcurve_77=1

<region>
sample=../Samples/perc/oh/timbales/timb13_vl3_rr2.wav
lovel=52
hivel=77
seq_length=4
seq_position=2
amp_velcurve_77=1

<region>
sample=../Samples/perc/oh/timbales/timb13_vl3_rr3.wav
lovel=52
hivel=77
seq_length=4
seq_position=3
amp_velcurve_77=1

<region>
sample=../Samples/perc/oh/timbales/timb13_vl3_rr4.wav
lovel=52
hivel=77
seq_length=4
seq_position=4
amp_velcurve_77=1

<region>
sample=../Samples/perc/oh/timbales/timb13_vl4_rr1.wav
lovel=78
hivel=102
seq_length=4
amp_velcurve_102=1

<region>
sample=../Samples/perc/oh/timbales/timb13_vl4_rr2.wav
lovel=78
hivel=102
seq_length=4
seq_position=2
amp_velcurve_102=1

<region>
sample=../Samples/perc/oh/timbales/timb13_vl4_rr3.wav
lovel=78
hivel=102
seq_length=4
seq_position=3
amp_velcurve_102=1

<region>
sample=../Samples/perc/oh/timbales/timb13_vl4_rr4.wav
lovel=78
hivel=102
seq_length=4
seq_position=4
amp_velcurve_102=1

<region>
sample=../Samples/perc/oh/timbales/timb13_vl5_rr1.wav
lovel=103
seq_length=4

<region>
sample=../Samples/perc/oh/timbales/timb13_vl5_rr2.wav
lovel=103
seq_length=4
seq_position=2

<region>
sample=../Samples/perc/oh/timbales/timb13_vl5_rr3.wav
lovel=103
seq_length=4
seq_position=3

<region>
sample=../Samples/perc/oh/timbales/timb13_vl5_rr4.wav
lovel=103
seq_length=4
seq_position=4
